<svg xmlns="http://www.w3.org/2000/svg" viewBox="0 0 765.35 595.28"><defs><style>.cls-1,.cls-2{fill:#fff;}.cls-2{font-size:54.45px;font-family:RoyalAcidbath, Royal Acidbath;}</style></defs><g id="Capa_13" data-name="Capa 13"><path class="cls-1" d="M209.87,292.49c2.35,2.18,18.42-1.26,18.42-1.26s-9.45-1.59-9.44-5.48c.24-2.27,35.6,3.2,35.11-1.31-1.14,0-32-.91-32.09-8.84-.66-4.68,16.11-2.39,15.66-5.77-2.61-.55-12.16-.2-12.51-5.37-.28-1.61-5.46-16,29.27-31.55s71.61-8.2,78.47-6.84c34.8,7.93,33.86,17.36,34.14,20.43.35,5.17-10.1,7.18-10.35,9.29,7.85,1.82,18.4-6.19,20.17,2S347,268.63,347.4,270.88c.93,3.2,26-2.11,32.09.41.69,5.32-43,10.85-42.93,13,1.48,4.8,40.15-5.08,38.61,1.46-1,3.93-58.28,9.64-69.92,10.08-26.17,2-77-4.56-77-4.56L211,293.42s18.45,12.35,95.12,9.46c26.53-1,84.7-9.33,87.5-16.57,5.72-50.59-42.2-71.31-94.61-69.34S207.8,240.73,209.87,292.49Z"/><path class="cls-1" d="M394,274.15s-.47-2.9-1.6-10.23c20.17,3.7,17.83,18.85,17.83,18.85s.71,15-14.2,16.74c-7.64,3.52-4.3,8.26-13.16,11.75s-14.7-3.09-21.74-2.83-13.48,9.74-24.15,10.39-11.74-6.37-22.85-6.68-11.53,9.91-24.88,10.41-15.39-8.65-26.14-10.19-10.4,7.68-24.26,7.47-14.59-6.9-20.3-10.17-8-.57-11.68-.29c-16-4.75-13.3-17.72-13.3-17.72s.35-16.54,17.55-18l-1.57,10.12s-8.34,4.2-6.33,12.38,14.3,4.82,18.23,6.85,12.45,7.79,17.1,8.83,18.42-7.73,26.25-6.33,17.57,8.58,24.61,8.31,17.67-8.44,23-8.88,15.81,6.69,24.75,5.39,17-7.12,22.77-8.39,13,3,19.7.47,8.23-7.11,12.51-9.7,11.35-1.89,10.79-10.37S394,274.15,394,274.15Z"/><path class="cls-1" d="M395.33,328.52s15.53,42.43-45.59,52c-35.67,7.66-85.16,3.45-93.45,2.54-35.66-3.32-51.05-28.92-46.81-49.69.4-2,1.09-4.67,5.58-5.78,9.32-1.4,30.27,23,41.87,32.92,2.93.38,40.47-20,46.84-21.9,11.41-3.34,83.18-29.64,91.56-10.11.29,1.21-10.38,6.11-11.75,5.19-2.18-6.11-39.09-2.3-78.21,10.59-8.62,3.54-46,23.6-48.93,23.47s-31.56-31.62-34.9-30.85c-.68.45-3.37-1.49-5.19,5.14-1.45,5.3,1.26,14.17,19,28,31.05,17.78,117.85,6.26,130.91-1.76s11.49-11.13,11.33-15.25c-4.14-6.89-39.18,4.87-41.59-1-.6-3.26,50.14-4.44,47.59-17.36C386.66,332.69,395.33,328.52,395.33,328.52Z"/><circle class="cls-1" cx="277.88" cy="273.29" r="5.06"/><circle class="cls-1" cx="293.88" cy="281.03" r="3.28"/><circle class="cls-1" cx="260" cy="249.14" r="5.1"/><circle class="cls-1" cx="266.04" cy="258.45" r="2.85"/><circle class="cls-1" cx="284.5" cy="237.28" r="2.91"/><circle class="cls-1" cx="281.22" cy="249.19" r="4.25"/><circle class="cls-1" cx="240.33" cy="254.19" r="3.46"/><circle class="cls-1" cx="247.55" cy="273.54" r="3.04"/><text class="cls-2" transform="translate(96.99 455)">Manjar Vegetal</text><path class="cls-1" d="M129,345.93C95.6,239.42,177.5,119.1,298.49,119.1c140,0,201.8,142.81,170.91,226.83,21.65-88.84-47-210.09-170.22-208.89C164.25,137.05,110,262.31,129,345.93Z"/></g></svg>