<svg xmlns="http://www.w3.org/2000/svg" viewBox="0 0 765.35 595.28"><defs><style>.cls-1{fill:#fff;}</style></defs><g id="Capa_13" data-name="Capa 13"><path class="cls-1" d="M208.48,386.2c4.59,4.26,36-2.45,36-2.45S226,380.64,226,373.06c.47-4.45,69.48,6.24,68.51-2.58-2.21.08-62.35-1.77-62.61-17.25-1.3-9.12,31.44-4.66,30.56-11.26-5.1-1.08-23.73-.38-24.43-10.47-.54-3.14-10.65-31.22,57.13-61.59s139.78-16,153.16-13.34C516.25,272,514.42,290.45,515,296.43c.69,10.09-19.71,14-20.19,18.15,15.31,3.54,35.91-12.1,39.35,3.9s-58,21.15-57.21,25.54c1.81,6.26,50.75-4.12,62.63.81,1.34,10.38-83.94,21.18-83.78,25.28,2.88,9.38,78.35-9.9,75.35,2.86-1.92,7.66-113.74,18.82-136.48,19.67-51.07,3.82-150.2-8.89-150.2-8.89L210.76,388s36,24.1,185.66,18.48c51.78-1.95,165.3-18.23,170.78-32.35C578.35,275.4,484.82,235,382.53,238.81S204.44,285.18,208.48,386.2Z"/><path class="cls-1" d="M567.83,350.4s-.9-5.65-3.12-19.95c39.38,7.21,34.8,36.79,34.8,36.79s1.39,29.35-27.71,32.66c-14.91,6.88-8.4,16.12-25.69,22.94s-28.68-6-42.42-5.52-26.32,19-47.14,20.26-22.91-12.41-44.59-13-22.51,19.34-48.56,20.32-30-16.89-51-19.9-20.3,15-47.35,14.59-28.49-13.48-39.64-19.86-15.69-1.11-22.78-.56c-31.18-9.26-26-34.6-26-34.6s.68-32.27,34.24-35.14l-3,19.74s-16.29,8.2-12.37,24.18,27.92,9.4,35.6,13.37,24.28,15.21,33.37,17.24,35.95-15.11,51.23-12.36,34.3,16.73,48,16.22,34.47-16.48,44.87-17.34,30.85,13.07,48.3,10.51S490,407.08,501.32,404.6s25.35,5.85,38.45.93,16.07-13.89,24.42-18.94,22.15-3.68,21.06-20.24S567.83,350.4,567.83,350.4Z"/><path class="cls-1" d="M570.46,456.53s30.3,82.82-89,101.53c-69.62,15-166.21,6.72-182.4,5-69.59-6.49-99.62-56.46-91.36-97,.78-3.82,2.13-9.12,10.9-11.28C236.8,452,277.68,499.66,300.32,519c5.72.73,79-39,91.42-42.75C414,469.73,554.1,418.4,570.46,456.53c.56,2.35-20.27,11.92-22.94,10.12-4.24-11.93-76.29-4.48-152.65,20.68-16.83,6.91-89.8,46.06-95.5,45.8s-61.6-61.71-68.11-60.21c-1.34.88-6.58-2.91-10.13,10-2.84,10.34,2.45,27.65,37.15,54.57,60.58,34.71,230,12.22,255.49-3.44s22.42-21.71,22.12-29.76c-8.09-13.45-76.47,9.51-81.17-1.93-1.19-6.36,97.85-8.66,92.87-33.89C553.53,464.66,570.46,456.53,570.46,456.53Z"/><circle class="cls-1" cx="341.21" cy="348.73" r="9.87"/><circle class="cls-1" cx="372.45" cy="363.84" r="6.4"/><circle class="cls-1" cx="306.32" cy="301.59" r="9.95"/><circle class="cls-1" cx="318.11" cy="319.76" r="5.57"/><circle class="cls-1" cx="354.14" cy="278.45" r="5.69"/><circle class="cls-1" cx="347.74" cy="301.69" r="8.29"/><circle class="cls-1" cx="267.92" cy="311.45" r="6.75"/><circle class="cls-1" cx="282.03" cy="349.21" r="5.92"/><path class="cls-1" d="M50.55,490.5C-14.55,282.63,145.3,47.79,381.45,47.79,654.63,47.79,775.3,326.51,715,490.5c42.26-173.39-91.73-410-332.23-407.7C119.44,82.81,13.49,327.29,50.55,490.5Z"/></g></svg>